<svg 
          width="8.137511253356934" 
          height="14.21250057220459" fill="none" 
          xmlns="http://www.w3.org/2000/svg">
          <path d="M 6.525011492215066 13.93125057220459 L 0.20626143225359725 7.63124942779541 C 0.13126142893860684 7.556249426677823 0.07801156812737269 7.475000286474824 0.04651156762914641 7.387500286102295 C 0.01501156713092014 7.300000285729766 -0.00048828114925492783 7.206250291317701 0.000011718860039322447 7.106250286102295 C 0.000011718860039322447 7.0062502808868885 0.015511567227525884 6.912500286474824 0.04651156762914641 6.825000286102295 C 0.07751156803076695 6.737500285729766 0.1307614316359689 6.656249715015292 0.20626143225359725 6.581249713897705 L 6.525011492215066 0.26249992847442627 C 6.700011498087399 0.08749992772936821 6.918761508221782 0 7.181261511442345 0 C 7.443761514662907 0 7.668761239623163 0.09375 7.856261245116671 0.28125 C 8.04376125061018 0.46875 8.137511253356934 0.6874999925494194 8.137511253356934 0.9375 C 8.137511253356934 1.1875000074505806 8.04376125061018 1.40625 7.856261245116671 1.59375 L 2.343761870388864 7.106250286102295 L 7.856261245116671 12.61875057220459 C 8.031261250989003 12.793750572949648 8.118761538909887 13.009499788284302 8.118761538909887 13.265999794006348 C 8.118761538909887 13.522499799728394 8.025011536163131 13.744250569492579 7.837511530669623 13.93125057220459 C 7.650011525176115 14.11875057220459 7.431261526217603 14.21250057220459 7.181261511442345 14.21250057220459 C 6.931261496667086 14.21250057220459 6.712511497708574 14.11875057220459 6.525011492215066 13.93125057220459 Z" fill="rgb(74.0000031888485,74.0000031888485,72.00000330805779)"/>
        </svg>