<svg 
          width="16.72451400756836" 
          height="16.498987197875977" fill="none" 
          xmlns="http://www.w3.org/2000/svg">
          <path d="M 14.009556674338976 16.498987197875977 C 13.2844177800571 16.498987197875977 12.60272261925483 16.21627832719594 12.089694850411075 15.703569974598327 L 8.362417247562828 11.9766116040123 L 4.635139340068613 15.703569974598327 C 4.122750451898424 16.21627832719594 3.440736441010934 16.498987197875977 2.7152781254326466 16.498987197875977 C 1.9898198098543596 16.498987197875977 1.308444679640436 16.21627832719594 0.7954169107966799 15.703569974598327 C 0.2827085632493346 15.191181081381016 0 14.509167673067505 0 13.783709350343324 C 0 13.058251027619143 0.282708410926351 12.37655601242504 0.7957361797701071 11.863528238527868 L 4.5223752446715 8.136569867941843 L 1.0212640659183663 4.6351387764336245 C 0.508555718371021 4.122749883216313 0.22584745976765352 3.440735865610863 0.22584745976765352 2.7152775428866818 C 0.22584745976765352 1.9898192201625005 0.508555718371021 1.308124966583323 1.0212640659183663 0.7954166139857087 C 1.5339724134657116 0.28270826138809446 2.2156670411375377 0 2.941444854173727 0 C 3.666903169752014 0 4.348597721262348 0.28270826138809446 4.861306068809694 0.7954166139857087 L 8.362417247562828 4.2968470962019865 L 11.863528121669994 0.7957361876082509 C 12.37623646921734 0.28302783501063666 13.057612132561704 0.00031926897657217354 13.783389945597895 0.00031926897657217354 C 14.509167758634085 0.00031926897657217354 15.190861662771738 0.28302783501063666 15.703250550941927 0.7957361876082509 C 16.215958898489273 1.3081250808255618 16.498667766384575 1.9901390984310128 16.498667766384575 2.715597421155194 C 16.498667766384575 3.4410557438793754 16.215958898489273 4.122750302104523 15.703250550941927 4.635458654702137 L 12.202458945808187 8.136569867941843 L 15.92909801070958 11.86384750750444 C 16.441806358256926 12.376236400721751 16.72451400756836 13.057931530158093 16.72451400756836 13.783709350343324 C 16.72451400756836 14.509167673067505 16.441806358256926 15.190861622000712 15.92909801070958 15.703569974598327 C 15.417028543835803 16.21627832719594 14.735014989917262 16.498987197875977 14.009556674338976 16.498987197875977 Z M 8.362417247562828 10.434334069325214 C 8.525653354100353 10.434334069325214 8.68920938650417 10.496625268818153 8.814112167098134 10.621528050642432 L 12.99308347089782 14.80018134521304 C 13.265250141266206 15.072028577922385 13.625584439027932 15.221209387272374 14.009556674338976 15.221209387272374 C 14.393848330946431 15.221209387272374 14.754500869501445 15.071709137582456 15.026028659196262 14.80018134521304 C 15.298195329564647 14.528334112503696 15.447056697108394 14.167681589436564 15.447056697108394 13.783709350343324 C 15.447056697108394 13.399737111250085 15.297875889227862 13.038764957439291 15.026028659196262 12.76755662445018 L 10.847694674759563 8.588264791926425 C 10.59820855390842 8.338778668617799 10.59820855390842 7.934361067265886 10.847694674759563 7.68487494395726 L 14.800181199428609 3.731750147048339 C 15.072347869796994 3.4599029143389943 15.22120923734074 3.0995692032794784 15.22120923734074 2.7152775428866818 C 15.22120923734074 2.330985882493885 15.07202842946021 1.9706527807263092 14.800181199428609 1.6988055480169644 C 14.528653409733792 1.4269583153076195 14.167681449882366 1.2777778106036008 13.783709214571322 1.2777778106036008 C 13.399736979260279 1.2777778106036008 13.038764657641766 1.42727775564755 12.76787576766089 1.6988055480169644 L 8.814112167098134 5.651930954217825 C 8.56462604624699 5.901417077526451 8.160527889215448 5.901417077526451 7.9107223280275205 5.651930954217825 L 3.957277691792225 1.6991251216395065 C 3.6857499020974083 1.4272778889301616 3.32509721121941 1.278097079580173 2.941124975908366 1.278097079580173 C 2.557152740597322 1.278097079580173 2.1961807807458964 1.427597329270092 1.9246529910510795 1.6991251216395065 C 1.6528057610194786 1.9709723543488513 1.5033056841655201 2.3313057607623975 1.5033056841655201 2.715597421155194 C 1.5033056841655201 3.0998890815479907 1.6531250871140246 3.4602221833155666 1.924333417431685 3.7320694160249115 L 5.8771386017822245 7.685195431517712 C 6.126624722633368 7.934681554826338 6.126624722633368 8.33909793759437 5.8771386017822245 8.588584060902997 L 1.698805835929393 12.76755662445018 C 1.4272780462345758 13.039084416819595 1.2777777980172609 13.3997369589271 1.2777777980172609 13.784028619319896 C 1.2777777980172609 14.167681399032832 1.4275975056117325 14.52865338148027 1.698805835929393 14.800500614189614 C 1.9706530659609938 15.072347846898959 2.3313058901216026 15.221528656248948 2.7152781254326466 15.221528656248948 C 3.0992503607436905 15.221528656248948 3.4602223205951157 15.07202840655903 3.7317501102899326 14.800500614189614 L 7.911042815584816 10.621847319619004 C 8.035626146321809 10.496625097454796 8.199181141025303 10.434334069325214 8.362417247562828 10.434334069325214 Z" fill="rgb(74,74,72)"/>
        </svg>