<svg 
          width="14.13330078125" 
          height="14.399055480957031" fill="none" 
          xmlns="http://www.w3.org/2000/svg">
          <path d="M 13.891705880346386 3.4548068399948813 L 11.98310763778609 3.4548068399948813 L 12.804528826280123 0.31407318152473607 C 12.804528826280123 0.28991369148419205 12.804528826280123 0.2657543868459398 12.804528826280123 0.24159489680539578 C 12.804528826280123 0.12079744840269789 12.707890871678748 0 12.562933925376509 0 L 11.040887155617432 0 C 10.920089705165624 0 10.823451745164183 0.09663777295986208 10.799292254713817 0.1932757331220382 L 9.977869222996969 3.4548068399948813 L 6.160669973042152 3.4548068399948813 L 6.982092083147594 0.31407318152473607 C 6.982092083147594 0.28991369148419205 6.982092083147594 0.2657543868459398 6.982092083147594 0.24159489680539578 C 6.982092083147594 0.12079744840269789 6.88545412854622 0 6.74049718224398 0 L 5.218449490873494 0 C 5.097652040421687 0 5.001014080420247 0.09663777295986208 4.976854589969881 0.1932757331220382 L 4.131272436807233 3.4306477189588986 L 2.005237493177713 3.4306477189588986 C 1.884440042725906 3.4306477189588986 1.8119615731748306 3.503126370882778 1.763642592274099 3.599764331044954 L 1.3770906586671763 5.0493337118773285 C 1.3770906586671763 5.073493201917873 1.3770906586671763 5.097651953949294 1.3770906586671763 5.097651953949294 C 1.3770906586671763 5.218449402351991 1.4737286132685505 5.33924685075469 1.61868555957079 5.33924685075469 L 3.6239235135542067 5.33924685075469 L 2.68170303138555 9.011489466518984 L 0.6281463737048327 9.011489466518984 C 0.5073489232530258 9.011489466518984 0.4348704537019506 9.083968118442863 0.38655147280121893 9.18060607860504 L 0 10.630175459437414 C 0 10.654334949477958 0 10.67849370150938 0 10.67849370150938 C 0 10.799291149912078 0.09663795460137423 10.920088598314775 0.2415949009036138 10.920088598314775 L 2.1743541081325244 10.920088598314775 L 1.3529310764156741 14.10914234207967 C 1.3529310764156741 14.133301832120214 1.3529310764156741 14.157460584151636 1.3529310764156741 14.157460584151636 C 1.3529310764156741 14.278258032554334 1.4495690310170484 14.399055480957031 1.594525977319288 14.399055480957031 L 3.116573668689773 14.399055480957031 C 3.23737111914158 14.399055480957031 3.3340090791430215 14.326578117849083 3.358168569593387 14.205780669446385 L 4.203750722756035 10.895929477278793 L 7.996790851265054 10.895929477278793 L 7.175368741159612 14.084983221043688 C 7.175368741159612 14.109142711084232 7.175368741159612 14.133301463115654 7.175368741159612 14.133301463115654 C 7.175368741159612 14.254098911518351 7.272006695760985 14.374896359921049 7.416963642063225 14.374896359921049 L 8.93901133343371 14.374896359921049 C 9.059808783885517 14.374896359921049 9.156446743886958 14.302417153590316 9.180606234337324 14.181619705187618 L 10.026188387499973 10.871770356242811 L 12.128064209683695 10.871770356242811 C 12.248861660135502 10.871770356242811 12.345499620136943 10.799291149912078 12.369659110587309 10.67849370150938 L 12.756210583388526 9.228925242288398 C 12.756210583388526 9.204765752247853 12.756210583388526 9.18060607860504 12.756210583388526 9.18060607860504 C 12.756210583388526 9.059808630202342 12.659572628787151 8.939011181799644 12.514615682484912 8.939011181799644 L 10.533538232364407 8.939011181799644 L 11.475756871310248 5.266768566035349 L 13.505154407545167 5.266768566035349 C 13.625951857996974 5.266768566035349 13.722589817998415 5.194290281316009 13.74674930844878 5.0734928329133115 L 14.13330078125 3.6239234520809367 C 14.13330078125 3.5997639620403925 14.13330078125 3.575604288397579 14.13330078125 3.575604288397579 C 14.133300781250004 3.5514447983570347 14.012503330798193 3.4548068399948813 13.891705880346386 3.4548068399948813 Z M 8.528299817575286 9.059808630202342 L 4.711100567620469 9.059808630202342 L 5.653320128177718 5.387566014438048 L 9.446360256686736 5.387566014438048 L 8.528299817575286 9.059808630202342 Z" fill="rgb(74,74,72)"/>
        </svg>