<svg width="36" height="36" viewBox="0 0 36 36" fill="none" xmlns="http://www.w3.org/2000/svg">
    <circle cx="18" cy="18" r="17.5" fill="white" stroke="#E5E5E5"/>
    <g clip-path="url(#clip0_31_40)">
        <path d="M24.6666 9.66667H15.7778V12.4444H16.8889V10.7778H24.6666C25 10.7778 25.2222 11 25.2222 11.3333V17.4444C25.2222 17.7778 25 18 24.6666 18H17.4444V21.8889H14.5L12.4444 23.5V21.8889H10.7778C10.4444 21.8889 10.2222 21.6667 10.2222 21.3333V15.2222C10.2222 14.8889 10.4444 14.6667 10.7778 14.6667H18V13.5556H10.7778C9.83331 13.5556 9.11108 14.2778 9.11108 15.2222V21.3333C9.11108 22.2778 9.83331 23 10.7778 23H11.3333V25.8333L14.8333 23H18.5555V19.1111H24.6666C25.6111 19.1111 26.3333 18.3889 26.3333 17.4444V11.3333C26.3333 10.3889 25.6111 9.66667 24.6666 9.66667Z" fill="#4A4A48"/>
        <path d="M11.4445 20.7222H12.7778L13.1111 19.8333H14.8333L15.1667 20.7222H16.5L14.6111 15.7778H13.2778L11.4445 20.7222ZM13.9445 17.1667L14.5 18.8889H13.3889L13.9445 17.1667Z" fill="#4A4A48"/>
        <path d="M19.1111 17.4444C19.7222 17.4444 20.5555 17.2778 21.3333 16.8889C22.1111 17.2778 23 17.4444 23.5555 17.4444V16.3333C23.5555 16.3333 23 16.3333 22.3889 16.1111C23.0555 15.4444 23.5555 14.4444 23.5555 13V12.4444H21.8889V11.3333H20.7778V12.4444H19.1111V13.5556H22.3889C22.2778 14.5556 21.8333 15.1667 21.3333 15.5556C21 15.2778 20.6666 14.8889 20.4444 14.3889H19.2778C19.5 15.1111 19.8333 15.6667 20.2778 16.1111C19.7222 16.3333 19.2222 16.3333 19.1111 16.3333V17.4444Z" fill="#4A4A48"/>
    </g>
    <defs>
        <clipPath id="clip0_31_40">
            <rect width="20" height="20" fill="white" transform="translate(8 8)"/>
        </clipPath>
    </defs>
</svg>
