<svg width="36" height="36" viewBox="0 0 36 36" fill="none" xmlns="http://www.w3.org/2000/svg">
    <circle cx="18" cy="18" r="17.5" fill="white" stroke="#E5E5E5"/>
    <path fill-rule="evenodd" clip-rule="evenodd" d="M17.9466 8H18.0534C20.2007 7.99999 21.8835 7.99998 23.1966 8.17651C24.5405 8.3572 25.601 8.73426 26.4334 9.56664C27.2658 10.399 27.6428 11.4595 27.8235 12.8035C28 14.1165 28 15.7993 28 17.9466V18.0534C28 20.2007 28 21.8835 27.8235 23.1966C27.6428 24.5405 27.2658 25.601 26.4334 26.4334C25.601 27.2658 24.5405 27.6428 23.1966 27.8235C21.8835 28 20.2007 28 18.0534 28H17.9466C15.7993 28 14.1165 28 12.8035 27.8235C11.4595 27.6428 10.399 27.2658 9.56664 26.4334C8.73426 25.601 8.3572 24.5405 8.17651 23.1966C7.99998 21.8835 7.99999 20.2007 8 18.0534V17.9466C7.99999 15.7993 7.99998 14.1165 8.17651 12.8035C8.3572 11.4595 8.73426 10.399 9.56664 9.56664C10.399 8.73426 11.4595 8.3572 12.8035 8.17651C14.1165 7.99998 15.7993 7.99999 17.9466 8ZM12.6512 9.61099C11.6606 9.78145 11.031 10.0756 10.5533 10.5533C10.0756 11.031 9.78145 11.6606 9.61099 12.6512H12.6512V9.61099ZM14.0465 9.46044V12.6512H17.3023V9.39561C16.0044 9.39698 14.9388 9.40566 14.0465 9.46044ZM18.6977 9.39561V12.6512H21.9535V9.46044C21.0612 9.40566 19.9956 9.39698 18.6977 9.39561ZM23.3488 9.61099V12.6512H26.389C26.2185 11.6606 25.9244 11.031 25.4467 10.5533C24.969 10.0756 24.3393 9.78145 23.3488 9.61099ZM26.5395 14.0465H22.6517H22.6506H18.0008H17.9992H13.3498H13.3479H9.46044C9.39614 15.0938 9.39535 16.3797 9.39535 18C9.39535 19.6203 9.39614 20.9062 9.46044 21.9535H26.5395C26.6038 20.9062 26.6047 19.6203 26.6047 18C26.6047 16.3797 26.6038 15.0938 26.5395 14.0465ZM26.389 23.3488H23.3488V26.389C24.3393 26.2185 24.969 25.9244 25.4467 25.4467C25.9244 24.969 26.2185 24.3393 26.389 23.3488ZM21.9535 26.5395V23.3488H18.6977V26.6044C19.9956 26.6031 21.0612 26.5943 21.9535 26.5395ZM17.3023 26.6044V23.3488H14.0465V26.5395C14.9388 26.5943 16.0044 26.6031 17.3023 26.6044ZM12.6512 26.389V23.3488H9.61099C9.78145 24.3393 10.0756 24.969 10.5533 25.4467C11.031 25.9244 11.6606 26.2185 12.6512 26.389ZM18.7249 15.9052C18.7405 15.9157 18.756 15.9261 18.7716 15.9366C18.786 15.9463 18.8005 15.956 18.8148 15.9656C19.2703 16.2717 19.6776 16.5453 19.9637 16.8089C20.2744 17.0952 20.5581 17.4732 20.5581 18C20.5581 18.5268 20.2744 18.9048 19.9637 19.1911C19.6776 19.4547 19.2703 19.7283 18.8148 20.0344L18.7716 20.0633C18.7561 20.0739 18.7405 20.0844 18.725 20.0948C18.2659 20.4033 17.8526 20.6813 17.5052 20.842C17.1403 21.0107 16.6227 21.1548 16.1269 20.8266C15.6714 20.5252 15.5457 20.0215 15.494 19.6181C15.4418 19.2097 15.4418 18.673 15.4419 18.0478V17.9522C15.4418 17.327 15.4418 16.7903 15.494 16.3819C15.5457 15.9785 15.6714 15.4748 16.1269 15.1734C16.6227 14.8452 17.1403 14.9893 17.5052 15.1581C17.8525 15.3187 18.2659 15.5966 18.7249 15.9052ZM16.9017 16.4165C16.9074 16.419 16.9133 16.4217 16.9194 16.4245C17.1528 16.5325 17.4723 16.7446 17.9933 17.0947C18.5057 17.4391 18.8207 17.6532 19.0182 17.8352C19.1104 17.9201 19.146 17.971 19.1588 17.9939C19.1602 17.9964 19.162 18 19.162 18C19.162 18 19.1602 18.0036 19.1588 18.0061C19.146 18.029 19.1104 18.0799 19.0182 18.1648C18.8207 18.3468 18.5057 18.5609 17.9933 18.9053C17.4723 19.2554 17.1528 19.4675 16.9194 19.5755C16.9133 19.5783 16.9074 19.581 16.9017 19.5835C16.8939 19.547 16.8857 19.5002 16.8781 19.441C16.8386 19.1322 16.8372 18.6865 16.8372 18C16.8372 17.3135 16.8386 16.8678 16.8781 16.559C16.8857 16.4998 16.8939 16.453 16.9017 16.4165Z" fill="#4A4A48"/>
    <path d="M22.6517 14.0465H26.5395C26.6038 15.0938 26.6047 16.3797 26.6047 18C26.6047 19.6203 26.6038 20.9062 26.5395 21.9535H9.46044C9.39614 20.9062 9.39535 19.6203 9.39535 18C9.39535 16.3797 9.39614 15.0938 9.46044 14.0465H13.3479H13.3498M22.6517 14.0465V14.0465ZM22.6517 14.0465H22.6506H18.0008M18.0008 14.0465V14.0465ZM18.0008 14.0465H17.9992H13.3498M13.3498 14.0465V14.0465ZM17.9466 8H18.0534C20.2007 7.99999 21.8835 7.99998 23.1966 8.17651C24.5405 8.3572 25.601 8.73426 26.4334 9.56664C27.2658 10.399 27.6428 11.4595 27.8235 12.8035C28 14.1165 28 15.7993 28 17.9466V18.0534C28 20.2007 28 21.8835 27.8235 23.1966C27.6428 24.5405 27.2658 25.601 26.4334 26.4334C25.601 27.2658 24.5405 27.6428 23.1966 27.8235C21.8835 28 20.2007 28 18.0534 28H17.9466C15.7993 28 14.1165 28 12.8035 27.8235C11.4595 27.6428 10.399 27.2658 9.56664 26.4334C8.73426 25.601 8.3572 24.5405 8.17651 23.1966C7.99998 21.8835 7.99999 20.2007 8 18.0534V17.9466C7.99999 15.7993 7.99998 14.1165 8.17651 12.8035C8.3572 11.4595 8.73426 10.399 9.56664 9.56664C10.399 8.73426 11.4595 8.3572 12.8035 8.17651C14.1165 7.99998 15.7993 7.99999 17.9466 8ZM12.6512 9.61099C11.6606 9.78145 11.031 10.0756 10.5533 10.5533C10.0756 11.031 9.78145 11.6606 9.61099 12.6512H12.6512V9.61099ZM14.0465 9.46044V12.6512H17.3023V9.39561C16.0044 9.39698 14.9388 9.40566 14.0465 9.46044ZM18.6977 9.39561V12.6512H21.9535V9.46044C21.0612 9.40566 19.9956 9.39698 18.6977 9.39561ZM23.3488 9.61099V12.6512H26.389C26.2185 11.6606 25.9244 11.031 25.4467 10.5533C24.969 10.0756 24.3393 9.78145 23.3488 9.61099ZM26.389 23.3488H23.3488V26.389C24.3393 26.2185 24.969 25.9244 25.4467 25.4467C25.9244 24.969 26.2185 24.3393 26.389 23.3488ZM21.9535 26.5395V23.3488H18.6977V26.6044C19.9956 26.6031 21.0612 26.5943 21.9535 26.5395ZM17.3023 26.6044V23.3488H14.0465V26.5395C14.9388 26.5943 16.0044 26.6031 17.3023 26.6044ZM12.6512 26.389V23.3488H9.61099C9.78145 24.3393 10.0756 24.969 10.5533 25.4467C11.031 25.9244 11.6606 26.2185 12.6512 26.389ZM18.7249 15.9052C18.7405 15.9157 18.756 15.9261 18.7716 15.9366C18.786 15.9463 18.8005 15.956 18.8148 15.9656C19.2703 16.2717 19.6776 16.5453 19.9637 16.8089C20.2744 17.0952 20.5581 17.4732 20.5581 18C20.5581 18.5268 20.2744 18.9048 19.9637 19.1911C19.6776 19.4547 19.2703 19.7283 18.8148 20.0344L18.7716 20.0633C18.7561 20.0739 18.7405 20.0844 18.725 20.0948C18.2659 20.4033 17.8526 20.6813 17.5052 20.842C17.1403 21.0107 16.6227 21.1548 16.1269 20.8266C15.6714 20.5252 15.5457 20.0215 15.494 19.6181C15.4418 19.2097 15.4418 18.673 15.4419 18.0478V17.9522C15.4418 17.327 15.4418 16.7903 15.494 16.3819C15.5457 15.9785 15.6714 15.4748 16.1269 15.1734C16.6227 14.8452 17.1403 14.9893 17.5052 15.1581C17.8525 15.3187 18.2659 15.5966 18.7249 15.9052ZM16.9017 16.4165C16.9074 16.419 16.9133 16.4217 16.9194 16.4245C17.1528 16.5325 17.4723 16.7446 17.9933 17.0947C18.5057 17.4391 18.8207 17.6532 19.0182 17.8352C19.1104 17.9201 19.146 17.971 19.1588 17.9939C19.1602 17.9964 19.162 18 19.162 18C19.162 18 19.1602 18.0036 19.1588 18.0061C19.146 18.029 19.1104 18.0799 19.0182 18.1648C18.8207 18.3468 18.5057 18.5609 17.9933 18.9053C17.4723 19.2554 17.1528 19.4675 16.9194 19.5755C16.9133 19.5783 16.9074 19.581 16.9017 19.5835C16.8939 19.547 16.8857 19.5002 16.8781 19.441C16.8386 19.1322 16.8372 18.6865 16.8372 18C16.8372 17.3135 16.8386 16.8678 16.8781 16.559C16.8857 16.4998 16.8939 16.453 16.9017 16.4165Z" stroke="#4A4A48" stroke-width="0.00086"/>
</svg>
