<svg 
          width="24" 
          height="24" fill="none" 
          xmlns="http://www.w3.org/2000/svg">
          <path d="M 20.48531198501587 3.5147345066070557 C 18.218765079975128 1.2482344508171082 15.205312371253967 0 12 0 C 8.794687628746033 0 5.781234562397003 1.2482344508171082 3.514687657356262 3.5147345066070557 C 1.2482344508171082 5.781234562397003 0 8.794687628746033 0 12 C 0 15.205312371253967 1.2482344508171082 18.218766152858734 3.514687657356262 20.48526620864868 C 5.781234562397003 22.75176626443863 8.794687628746033 24 12 24 C 15.205312371253967 24 18.218765079975128 22.75176626443863 20.48531198501587 20.48526620864868 C 22.751765191555023 18.218766152858734 24 15.205312371253967 24 12 C 24 8.794687628746033 22.751765191555023 5.781234562397003 20.48531198501587 3.5147345066070557 Z M 12 22.59375 C 9.147937417030334 22.59375 6.555843830108643 21.46045285463333 4.649437665939331 19.620984077453613 C 5.681812673807144 16.466577887535095 8.647828102111816 14.296875 12 14.296875 C 15.352171897888184 14.296875 18.318186968564987 16.466578245162964 19.350608825683594 19.621031284332275 C 17.444155633449554 21.4604532122612 14.852062582969666 22.59375 12 22.59375 Z M 8.484375 9.375 C 8.484375 7.436484396457672 10.061484396457672 5.859375 12 5.859375 C 13.938515603542328 5.859375 15.515625 7.436484396457672 15.515625 9.375 C 15.515625 11.313515603542328 13.938515603542328 12.890625 12 12.890625 C 10.061484396457672 12.890625 8.484375 11.313515603542328 8.484375 9.375 Z M 20.406562328338623 18.43846893310547 C 19.372031092643738 16.0180783867836 17.340749502182007 14.178984314203262 14.885765075683594 13.359562397003174 C 16.118577539920807 12.46424987912178 16.921875 11.011781215667725 16.921875 9.375 C 16.921875 6.661078155040741 14.713921844959259 4.453125 12 4.453125 C 9.286078155040741 4.453125 7.078125 6.661078155040741 7.078125 9.375 C 7.078125 11.011781215667725 7.881422013044357 12.46424987912178 9.114281415939331 13.359562397003174 C 6.6592501401901245 14.178984314203262 4.627968907356262 16.0180783867836 3.593437671661377 18.43846893310547 C 2.222531408071518 16.65276575088501 1.40625 14.42006242275238 1.40625 12 C 1.40625 6.158578276634216 6.158578276634216 1.40625 12 1.40625 C 17.841421723365784 1.40625 22.59375 6.158578276634216 22.59375 12 C 22.59375 14.42006242275238 21.777468591928482 16.65276575088501 20.406562328338623 18.43846893310547 Z" fill="rgb(108,108,108)"/>
        </svg>