<svg width="36" height="36" viewBox="0 0 36 36" fill="none" xmlns="http://www.w3.org/2000/svg">
    <circle cx="18" cy="18" r="17.5" fill="white" stroke="#E5E5E5"/>
    <path d="M14.9375 15.0746V12.8754C14.9375 12.3919 15.3293 12 15.8125 12H20.1875C20.6708 12 21.0625 12.3919 21.0625 12.8754V15.0746M11 18.1279V23.8181C11 24.3016 11.3918 24.6935 11.875 24.6935H24.125C24.6083 24.6935 25 24.3016 25 23.8181V18.1279M11 18.1279V15.9501C11 15.4666 11.3918 15.0746 11.875 15.0746H24.125C24.6083 15.0746 25 15.4666 25 15.9501V18.1279M11 18.1279L17.3856 20.5237C17.7817 20.6722 18.2183 20.6722 18.6144 20.5237L25 18.1279" stroke="#4A4A48"/>
</svg>
