<svg width="36" height="36" viewBox="0 0 36 36" fill="none" xmlns="http://www.w3.org/2000/svg">
    <circle cx="18" cy="18" r="17.5" fill="white" stroke="#E5E5E5"/>
    <g clip-path="url(#clip0_26_1490)">
        <path d="M18.3738 18.9013C18.4729 18.9667 18.589 19.0016 18.7078 19.0017C18.9057 19.0017 19.0997 18.9056 19.2159 18.728C19.4007 18.4475 19.3233 18.0704 19.0427 17.8856C17.7501 17.0347 17.0608 16.0921 16.8738 14.9204C16.7875 14.3698 16.9021 13.5339 17.3592 12.9998C17.6556 12.6537 18.0465 12.4851 18.5546 12.4851C19.5512 12.4851 19.9589 13.1928 20.1133 13.6143C20.4864 14.6313 20.1785 15.8972 19.398 16.5581C19.1415 16.7755 19.1099 17.1591 19.3265 17.415C19.5439 17.6719 19.9272 17.7035 20.1834 17.4865C21.3529 16.4966 21.8034 14.6922 21.255 13.1961C20.8131 11.9898 19.8034 11.2695 18.5546 11.2695C17.6944 11.2695 16.9613 11.5946 16.4347 12.2094C15.6756 13.0976 15.5495 14.3263 15.6727 15.1104C15.9948 17.1262 17.3687 18.2393 18.3738 18.9013Z" fill="#4A4A48"/>
        <path d="M23.1624 24.515H14.4798C14.5019 21.7918 14.6702 20.983 14.7456 20.7571C14.9115 20.2602 15.5936 19.749 16.1906 19.4151C16.7301 20.2648 17.5866 20.7713 18.5387 20.7713H18.539C19.4803 20.7709 20.3296 20.2648 20.8664 19.4155C21.4635 19.7494 22.1445 20.2605 22.3102 20.7568C22.5242 21.4 22.512 22.3043 22.5022 23.0308C22.5002 23.18 22.4982 23.3222 22.4982 23.4543C22.4982 23.7902 22.7702 24.0622 23.1061 24.0622C23.442 24.0622 23.7141 23.7902 23.7141 23.4543C23.7141 23.3275 23.716 23.1908 23.718 23.0473C23.7295 22.2289 23.7437 21.2106 23.4638 20.3718C23.0047 18.9959 21.0568 18.1384 20.8361 18.0452C20.7617 18.0135 20.6817 17.9971 20.6008 17.9968C20.5199 17.9966 20.4398 18.0126 20.3652 18.0438C20.2906 18.0751 20.223 18.1208 20.1663 18.1784C20.1096 18.236 20.0649 18.3044 20.0349 18.3794C19.7405 19.1154 19.1813 19.5551 18.5391 19.5551H18.5387C17.8933 19.5551 17.3124 19.1046 17.0219 18.3794C16.9918 18.3044 16.9472 18.236 16.8905 18.1784C16.8338 18.1208 16.7661 18.0751 16.6916 18.0438C16.617 18.0127 16.5369 17.9967 16.456 17.997C16.3751 17.9972 16.2951 18.0136 16.2206 18.0452C16.0003 18.1384 14.0521 18.9956 13.5923 20.3722C13.373 21.0308 13.262 22.6294 13.262 25.1227C13.262 25.4586 13.5341 25.7306 13.87 25.7306H23.1628C23.4984 25.7306 23.7704 25.4589 23.7704 25.123C23.7704 24.787 23.4983 24.515 23.1624 24.515ZM12.7785 18.7216C11.9351 18.7216 11.2492 17.839 11.2492 16.7545C11.2492 15.671 11.9351 14.7895 12.7785 14.7895C13.2103 14.7895 13.6381 15.0391 13.8949 15.4405C14.083 15.7346 14.3376 16.36 13.9292 17.2449C13.7885 17.5499 13.9216 17.9108 14.2266 18.0517C14.5319 18.192 14.8925 18.0593 15.0331 17.7544C15.5086 16.7239 15.4668 15.6421 14.9185 14.7852C14.4331 14.0268 13.6331 13.5739 12.7782 13.5739C11.2646 13.5739 10.0333 15.0006 10.0333 16.7546C10.0333 18.5095 11.2646 19.9371 12.7782 19.9371C13.1141 19.9371 13.3865 19.6654 13.3865 19.3295C13.3864 18.9936 13.1144 18.7216 12.7785 18.7216ZM12.0102 23.9364H10.2385C10.2655 23.3344 10.3201 22.4393 10.4192 21.9131C10.5477 21.2261 10.9172 20.8385 11.2047 20.6343C11.479 20.44 11.5432 20.0606 11.3486 19.7869C11.1543 19.5126 10.7752 19.448 10.5012 19.643C10.1159 19.9163 9.43751 20.546 9.22444 21.6888C9.04792 22.6263 9.00216 24.4521 9.00016 24.5292C8.99832 24.6102 9.01266 24.6908 9.04234 24.7663C9.07203 24.8417 9.11646 24.9104 9.17304 24.9685C9.22968 25.0265 9.29735 25.0726 9.37207 25.104C9.44678 25.1355 9.52704 25.1516 9.6081 25.1516H12.0102C12.3461 25.1516 12.6181 24.8802 12.6181 24.5443C12.6182 24.2084 12.3461 23.9364 12.0102 23.9364ZM26.9674 16.7538C26.9674 14.9999 25.7361 13.5732 24.2225 13.5732C23.3673 13.5732 22.567 14.0257 22.0813 14.7842C21.533 15.6407 21.4908 16.7229 21.9657 17.7533C22.1063 18.0579 22.4676 18.1916 22.7722 18.051C23.0768 17.9104 23.2105 17.5495 23.0699 17.2445C22.6615 16.3593 22.9168 15.7343 23.1048 15.4401C23.362 15.0387 23.7898 14.7891 24.2222 14.7891C25.0656 14.7891 25.7516 15.6707 25.7516 16.7541C25.7516 17.8386 25.0656 18.7212 24.2222 18.7212C23.8863 18.7212 23.6143 18.9932 23.6143 19.3291C23.6143 19.6651 23.8863 19.9371 24.2222 19.9371C25.7354 19.9371 26.9671 18.5095 26.9674 16.7538ZM27.7756 21.6901C27.5707 20.5846 26.9266 19.9615 26.561 19.6888C26.292 19.4885 25.9109 19.5432 25.7101 19.8123C25.5095 20.0813 25.5648 20.4627 25.8336 20.6632C26.1066 20.8668 26.4573 21.2481 26.5805 21.9137C26.6796 22.4392 26.7343 23.334 26.7613 23.9357H24.9892C24.6533 23.9357 24.3812 24.2077 24.3812 24.5436C24.3812 24.8796 24.6533 25.1516 24.9892 25.1516H27.3919C27.5556 25.1516 27.7123 25.0857 27.8273 24.9682C27.8838 24.9101 27.9282 24.8413 27.9578 24.7659C27.9874 24.6904 28.0017 24.6099 27.9998 24.5288C27.9979 24.4518 27.9524 22.6257 27.7756 21.6901Z" fill="#4A4A48"/>
    </g>
    <defs>
        <clipPath id="clip0_26_1490">
            <rect width="19" height="19" fill="white" transform="translate(9 9)"/>
        </clipPath>
    </defs>
</svg>
