<svg xmlns="http://www.w3.org/2000/svg" xmlns:xlink="http://www.w3.org/1999/xlink" width="30px" zoomAndPan="magnify" viewBox="0 0 375 374.999991" height="30px" preserveAspectRatio="xMidYMid meet" version="1.0"><defs><g/><clipPath id="e20cdb54f2"><path d="M 146.351562 122 L 228.851562 122 L 228.851562 200 L 146.351562 200 Z M 146.351562 122 " clip-rule="nonzero"/></clipPath><clipPath id="420a1b5aa3"><path d="M 167 112.320312 L 208 112.320312 L 208 200.070312 L 167 200.070312 Z M 167 112.320312 " clip-rule="nonzero"/></clipPath></defs><g clip-path="url(#e20cdb54f2)"><path fill="#1c1d33" d="M 156.152344 122.871094 L 192.472656 122.871094 L 163.097656 160.917969 C 161.8125 162.578125 161.601562 164.6875 162.527344 166.566406 C 163.453125 168.453125 165.25 169.570312 167.347656 169.570312 L 176.640625 169.570312 L 172.347656 185.210938 L 157.0625 185.210938 L 146.585938 199.441406 C 146.585938 177.109375 146.585938 154.773438 146.585938 132.445312 C 146.585938 127.175781 150.886719 122.871094 156.152344 122.871094 Z M 209.140625 122.871094 L 218.980469 122.871094 C 224.242188 122.871094 228.550781 127.183594 228.550781 132.445312 L 228.550781 175.636719 C 228.550781 180.898438 224.242188 185.210938 218.980469 185.210938 L 191.523438 185.210938 L 212.109375 157.257812 C 213.34375 155.582031 213.515625 153.503906 212.578125 151.644531 C 211.640625 149.792969 209.863281 148.699219 207.785156 148.699219 L 199.253906 148.699219 L 209.140625 122.871094 " fill-opacity="1" fill-rule="evenodd"/></g><g clip-path="url(#420a1b5aa3)"><path fill="#004aad" d="M 167.347656 164.203125 L 183.695312 164.203125 L 173.785156 200.234375 L 207.785156 154.066406 L 191.441406 154.066406 L 207.441406 112.285156 L 167.347656 164.203125 " fill-opacity="1" fill-rule="evenodd"/></g><g fill="#1c1d33" fill-opacity="1"><g transform="translate(97.046892, 242.40681)"><g><path d="M 13.105469 0.589844 C 19.195312 0.589844 24.234375 -2.476562 24.234375 -8.820312 C 24.234375 -15.414062 18.605469 -16.800781 14.152344 -17.933594 C 11.003906 -18.691406 8.484375 -19.320312 8.484375 -21.378906 C 8.484375 -23.308594 10.542969 -24.191406 12.601562 -24.191406 C 14.992188 -24.191406 17.09375 -23.015625 17.09375 -20.453125 L 23.351562 -20.453125 C 23.351562 -26.335938 19.53125 -29.945312 12.769531 -29.945312 C 6.257812 -29.945312 2.101562 -26.753906 2.101562 -21.125 C 2.101562 -14.785156 7.476562 -13.480469 11.929688 -12.390625 C 15.121094 -11.675781 17.808594 -11.046875 17.808594 -8.734375 C 17.808594 -6.550781 15.457031 -5.292969 13.0625 -5.292969 C 10.457031 -5.292969 8.105469 -6.679688 8.105469 -9.492188 L 1.679688 -9.492188 C 1.679688 -3.191406 6.34375 0.589844 13.105469 0.589844 Z M 13.105469 0.589844 "/></g></g><g transform="translate(123.044891, 242.40681)"><g><path d="M 15.289062 -23.308594 C 12.472656 -23.308594 9.953125 -22.300781 8.023438 -20.578125 L 6.972656 -22.679688 L 2.941406 -22.679688 L 2.941406 8.191406 L 9.070312 8.191406 L 9.070312 -1.21875 C 10.792969 0 12.9375 0.714844 15.289062 0.714844 C 22.132812 0.714844 27.175781 -4.453125 27.175781 -11.339844 C 27.175781 -18.1875 22.132812 -23.308594 15.289062 -23.308594 Z M 14.785156 -5.125 C 11.214844 -5.125 8.609375 -7.769531 8.609375 -11.339844 C 8.609375 -14.867188 11.214844 -17.554688 14.785156 -17.554688 C 18.355469 -17.554688 20.957031 -14.867188 20.957031 -11.339844 C 20.957031 -7.769531 18.355469 -5.125 14.785156 -5.125 Z M 14.785156 -5.125 "/></g></g><g transform="translate(151.688891, 242.40681)"><g><path d="M 24.949219 -11.382812 C 24.949219 -17.933594 20.160156 -23.308594 13.1875 -23.308594 C 6.46875 -23.308594 1.429688 -18.144531 1.429688 -11.339844 C 1.429688 -4.535156 6.511719 0.671875 13.1875 0.671875 C 18.480469 0.671875 22.804688 -2.476562 24.445312 -7.433594 L 18.019531 -7.433594 C 17.09375 -5.796875 15.328125 -4.789062 13.1875 -4.789062 C 10.207031 -4.789062 8.191406 -6.511719 7.644531 -9.617188 L 24.820312 -9.617188 C 24.90625 -10.207031 24.949219 -10.792969 24.949219 -11.382812 Z M 13.1875 -18.058594 C 15.960938 -18.058594 17.933594 -16.546875 18.816406 -13.777344 L 7.8125 -13.777344 C 8.527344 -16.464844 10.457031 -18.058594 13.1875 -18.058594 Z M 13.1875 -18.058594 "/></g></g><g transform="translate(178.064891, 242.40681)"><g><path d="M 21.421875 -22.679688 L 20.789062 -20.539062 C 18.816406 -22.261719 16.253906 -23.308594 13.3125 -23.308594 C 6.511719 -23.308594 1.429688 -18.1875 1.429688 -11.339844 C 1.429688 -4.492188 6.511719 0.671875 13.3125 0.671875 C 16.210938 0.671875 18.730469 -0.335938 20.664062 -2.058594 L 21.210938 0 L 25.996094 0 L 25.996094 -22.679688 Z M 13.816406 -5.125 C 10.246094 -5.125 7.644531 -7.8125 7.644531 -11.339844 C 7.644531 -14.910156 10.246094 -17.554688 13.816406 -17.554688 C 17.386719 -17.554688 19.992188 -14.910156 19.992188 -11.339844 C 19.992188 -7.769531 17.386719 -5.125 13.816406 -5.125 Z M 13.816406 -5.125 "/></g></g><g transform="translate(207.04489, 242.40681)"><g><path d="M 23.730469 0 L 15.246094 -11.84375 L 22.933594 -22.679688 L 15.875 -22.679688 L 9.070312 -12.601562 L 9.070312 -30.828125 L 2.941406 -30.828125 L 2.941406 0 L 9.070312 0 L 9.070312 -10.835938 L 16.296875 0 Z M 23.730469 0 "/></g></g><g transform="translate(230.60689, 242.40681)"><g><path d="M 10.960938 0.671875 C 16.714844 0.671875 20.496094 -2.351562 20.496094 -6.972656 C 20.496094 -12.515625 15.75 -13.273438 12.054688 -13.945312 C 9.703125 -14.363281 7.769531 -14.742188 7.769531 -16.253906 C 7.769531 -17.554688 8.902344 -18.394531 10.792969 -18.394531 C 12.9375 -18.394531 14.195312 -17.515625 14.238281 -15.707031 L 20.074219 -15.707031 C 20.035156 -20.242188 16.421875 -23.308594 10.960938 -23.308594 C 5.503906 -23.308594 1.847656 -20.328125 1.847656 -16.042969 C 1.847656 -10.710938 6.46875 -9.742188 10.078125 -9.113281 C 12.472656 -8.734375 14.449219 -8.273438 14.449219 -6.71875 C 14.449219 -5.207031 12.894531 -4.410156 11.214844 -4.410156 C 9.03125 -4.410156 7.476562 -5.417969 7.433594 -7.433594 L 1.46875 -7.433594 C 1.46875 -2.605469 5.292969 0.671875 10.960938 0.671875 Z M 10.960938 0.671875 "/></g></g></g><g fill="#1c1d33" fill-opacity="1"><g transform="translate(252.656882, 242.40681)"><g><path d="M 18.605469 -22.679688 L 12.9375 -8.695312 L 6.886719 -22.679688 L 0.210938 -22.679688 L 9.828125 -1.722656 L 9.742188 -1.554688 C 8.359375 1.890625 7.601562 2.6875 4.621094 2.6875 L 2.519531 2.6875 L 2.519531 8.191406 L 5.039062 8.191406 C 10.121094 8.191406 12.515625 5.878906 15.246094 -0.292969 L 25.117188 -22.679688 Z M 18.605469 -22.679688 "/></g></g></g><g fill="#004aad" fill-opacity="1"><g transform="translate(108.664714, 264.511946)"><g><path d="M 3.546875 -7.75 C 4.535156 -7.75 5.429688 -7.488281 6.234375 -6.96875 L 5.703125 -5.8125 C 4.910156 -6.289062 4.15625 -6.53125 3.4375 -6.53125 C 3.050781 -6.53125 2.742188 -6.457031 2.515625 -6.3125 C 2.296875 -6.175781 2.1875 -5.976562 2.1875 -5.71875 C 2.1875 -5.46875 2.289062 -5.253906 2.5 -5.078125 C 2.707031 -4.898438 2.960938 -4.765625 3.265625 -4.671875 C 3.578125 -4.585938 3.910156 -4.484375 4.265625 -4.359375 C 4.628906 -4.234375 4.960938 -4.097656 5.265625 -3.953125 C 5.578125 -3.804688 5.832031 -3.582031 6.03125 -3.28125 C 6.238281 -2.976562 6.34375 -2.609375 6.34375 -2.171875 C 6.34375 -1.503906 6.070312 -0.96875 5.53125 -0.5625 C 4.988281 -0.15625 4.289062 0.046875 3.4375 0.046875 C 2.84375 0.046875 2.269531 -0.0625 1.71875 -0.28125 C 1.175781 -0.5 0.695312 -0.796875 0.28125 -1.171875 L 0.84375 -2.296875 C 1.238281 -1.941406 1.664062 -1.664062 2.125 -1.46875 C 2.59375 -1.269531 3.035156 -1.171875 3.453125 -1.171875 C 3.910156 -1.171875 4.265625 -1.253906 4.515625 -1.421875 C 4.765625 -1.585938 4.890625 -1.816406 4.890625 -2.109375 C 4.890625 -2.378906 4.785156 -2.601562 4.578125 -2.78125 C 4.378906 -2.957031 4.125 -3.085938 3.8125 -3.171875 C 3.507812 -3.253906 3.175781 -3.351562 2.8125 -3.46875 C 2.457031 -3.59375 2.125 -3.722656 1.8125 -3.859375 C 1.507812 -3.992188 1.253906 -4.210938 1.046875 -4.515625 C 0.835938 -4.816406 0.734375 -5.179688 0.734375 -5.609375 C 0.734375 -6.265625 0.988281 -6.785156 1.5 -7.171875 C 2.019531 -7.554688 2.703125 -7.75 3.546875 -7.75 Z M 3.546875 -7.75 "/></g></g></g><g fill="#004aad" fill-opacity="1"><g transform="translate(123.432847, 264.511946)"><g><path d="M 1.015625 -7.703125 L 4.078125 -7.703125 C 5.046875 -7.703125 5.796875 -7.472656 6.328125 -7.015625 C 6.859375 -6.554688 7.125 -5.910156 7.125 -5.078125 C 7.125 -4.203125 6.859375 -3.523438 6.328125 -3.046875 C 5.796875 -2.566406 5.046875 -2.328125 4.078125 -2.328125 L 2.3125 -2.328125 L 2.3125 0 L 1.015625 0 Z M 2.3125 -6.53125 L 2.3125 -3.484375 L 4.03125 -3.484375 C 5.269531 -3.484375 5.890625 -4 5.890625 -5.03125 C 5.890625 -6.03125 5.269531 -6.53125 4.03125 -6.53125 Z M 2.3125 -6.53125 "/></g></g></g><g fill="#004aad" fill-opacity="1"><g transform="translate(138.76158, 264.511946)"><g><path d="M 6.515625 -6.53125 L 2.3125 -6.53125 L 2.3125 -4.453125 L 6.078125 -4.453125 L 6.078125 -3.28125 L 2.3125 -3.28125 L 2.3125 -1.171875 L 6.640625 -1.171875 L 6.640625 0 L 1.015625 0 L 1.015625 -7.703125 L 6.515625 -7.703125 Z M 6.515625 -6.53125 "/></g></g></g><g fill="#004aad" fill-opacity="1"><g transform="translate(153.903443, 264.511946)"><g><path d="M 5.984375 -1.734375 L 2.09375 -1.734375 L 1.359375 0 L 0.015625 0 L 3.40625 -7.703125 L 4.734375 -7.703125 L 8.109375 0 L 6.71875 0 Z M 5.484375 -2.890625 L 4.03125 -6.3125 L 2.578125 -2.890625 Z M 5.484375 -2.890625 "/></g></g></g><g fill="#004aad" fill-opacity="1"><g transform="translate(169.946677, 264.511946)"><g><path d="M 6.15625 0 L 3.625 -3.40625 L 2.3125 -1.953125 L 2.3125 0 L 1.015625 0 L 1.015625 -7.703125 L 2.3125 -7.703125 L 2.3125 -3.71875 L 5.984375 -7.703125 L 7.515625 -7.703125 L 4.53125 -4.40625 L 7.71875 0 Z M 6.15625 0 "/></g></g></g><g fill="#004aad" fill-opacity="1"><g transform="translate(185.770056, 264.511946)"><g><path d="M 6.515625 -6.53125 L 2.3125 -6.53125 L 2.3125 -4.453125 L 6.078125 -4.453125 L 6.078125 -3.28125 L 2.3125 -3.28125 L 2.3125 -1.171875 L 6.640625 -1.171875 L 6.640625 0 L 1.015625 0 L 1.015625 -7.703125 L 6.515625 -7.703125 Z M 6.515625 -6.53125 "/></g></g></g><g fill="#004aad" fill-opacity="1"><g transform="translate(200.911916, 264.511946)"><g><path d="M 5.890625 0 L 4.484375 -2.328125 C 4.410156 -2.328125 4.296875 -2.328125 4.140625 -2.328125 L 2.3125 -2.328125 L 2.3125 0 L 1.015625 0 L 1.015625 -7.703125 L 4.140625 -7.703125 C 5.117188 -7.703125 5.878906 -7.472656 6.421875 -7.015625 C 6.960938 -6.554688 7.234375 -5.910156 7.234375 -5.078125 C 7.234375 -4.453125 7.09375 -3.925781 6.8125 -3.5 C 6.539062 -3.082031 6.148438 -2.773438 5.640625 -2.578125 L 7.375 0 Z M 2.3125 -3.484375 L 4.140625 -3.484375 C 5.378906 -3.484375 6 -4 6 -5.03125 C 6 -6.03125 5.378906 -6.53125 4.140625 -6.53125 L 2.3125 -6.53125 Z M 2.3125 -3.484375 "/></g></g></g><g fill="#004aad" fill-opacity="1"><g transform="translate(216.79026, 264.511946)"><g/></g></g><g fill="#004aad" fill-opacity="1"><g transform="translate(227.557216, 264.511946)"><g><path d="M 5.984375 -1.734375 L 2.09375 -1.734375 L 1.359375 0 L 0.015625 0 L 3.40625 -7.703125 L 4.734375 -7.703125 L 8.109375 0 L 6.71875 0 Z M 5.484375 -2.890625 L 4.03125 -6.3125 L 2.578125 -2.890625 Z M 5.484375 -2.890625 "/></g></g></g><g fill="#004aad" fill-opacity="1"><g transform="translate(243.600446, 264.511946)"><g><path d="M 1.015625 -7.703125 L 4.078125 -7.703125 C 5.046875 -7.703125 5.796875 -7.472656 6.328125 -7.015625 C 6.859375 -6.554688 7.125 -5.910156 7.125 -5.078125 C 7.125 -4.203125 6.859375 -3.523438 6.328125 -3.046875 C 5.796875 -2.566406 5.046875 -2.328125 4.078125 -2.328125 L 2.3125 -2.328125 L 2.3125 0 L 1.015625 0 Z M 2.3125 -6.53125 L 2.3125 -3.484375 L 4.03125 -3.484375 C 5.269531 -3.484375 5.890625 -4 5.890625 -5.03125 C 5.890625 -6.03125 5.269531 -6.53125 4.03125 -6.53125 Z M 2.3125 -6.53125 "/></g></g></g><g fill="#004aad" fill-opacity="1"><g transform="translate(258.929177, 264.511946)"><g><path d="M 1.015625 -7.703125 L 4.078125 -7.703125 C 5.046875 -7.703125 5.796875 -7.472656 6.328125 -7.015625 C 6.859375 -6.554688 7.125 -5.910156 7.125 -5.078125 C 7.125 -4.203125 6.859375 -3.523438 6.328125 -3.046875 C 5.796875 -2.566406 5.046875 -2.328125 4.078125 -2.328125 L 2.3125 -2.328125 L 2.3125 0 L 1.015625 0 Z M 2.3125 -6.53125 L 2.3125 -3.484375 L 4.03125 -3.484375 C 5.269531 -3.484375 5.890625 -4 5.890625 -5.03125 C 5.890625 -6.03125 5.269531 -6.53125 4.03125 -6.53125 Z M 2.3125 -6.53125 "/></g></g></g></svg>