<svg xmlns="http://www.w3.org/2000/svg" xmlns:xlink="http://www.w3.org/1999/xlink" width="1000" zoomAndPan="magnify" viewBox="0 0 375 200" height="1000" preserveAspectRatio="xMidYMid meet" version="1.0"><defs><g/><clipPath id="e20cdb54f2"><path d="M 146.351562 122 L 228.851562 122 L 228.851562 200 L 146.351562 200 Z M 146.351562 122 " clip-rule="nonzero"/></clipPath><clipPath id="420a1b5aa3"><path d="M 167 112.320312 L 208 112.320312 L 208 200.070312 L 167 200.070312 Z M 167 112.320312 " clip-rule="nonzero"/></clipPath></defs><g clip-path="url(#e20cdb54f2)"><path fill="#1c1d33" d="M 156.152344 122.871094 L 192.472656 122.871094 L 163.097656 160.917969 C 161.8125 162.578125 161.601562 164.6875 162.527344 166.566406 C 163.453125 168.453125 165.25 169.570312 167.347656 169.570312 L 176.640625 169.570312 L 172.347656 185.210938 L 157.0625 185.210938 L 146.585938 199.441406 C 146.585938 177.109375 146.585938 154.773438 146.585938 132.445312 C 146.585938 127.175781 150.886719 122.871094 156.152344 122.871094 Z M 209.140625 122.871094 L 218.980469 122.871094 C 224.242188 122.871094 228.550781 127.183594 228.550781 132.445312 L 228.550781 175.636719 C 228.550781 180.898438 224.242188 185.210938 218.980469 185.210938 L 191.523438 185.210938 L 212.109375 157.257812 C 213.34375 155.582031 213.515625 153.503906 212.578125 151.644531 C 211.640625 149.792969 209.863281 148.699219 207.785156 148.699219 L 199.253906 148.699219 L 209.140625 122.871094 " fill-opacity="1" fill-rule="evenodd"/></g><g clip-path="url(#420a1b5aa3)"><path fill="#004aad" d="M 167.347656 164.203125 L 183.695312 164.203125 L 173.785156 200.234375 L 207.785156 154.066406 L 191.441406 154.066406 L 207.441406 112.285156 L 167.347656 164.203125 " fill-opacity="1" fill-rule="evenodd"/></g></svg>