<svg width="36" height="36" viewBox="0 0 36 36" fill="none" xmlns="http://www.w3.org/2000/svg">
    <circle cx="18" cy="18" r="17.5" fill="white" stroke="#E5E5E5"/>
    <path d="M24.8917 14.4548H22.9831L23.8045 11.3141C23.8045 11.2899 23.8045 11.2658 23.8045 11.2416C23.8045 11.1208 23.7079 11 23.5629 11H22.0409C21.9201 11 21.8235 11.0966 21.7993 11.1933L20.9779 14.4548H17.1607L17.9821 11.3141C17.9821 11.2899 17.9821 11.2658 17.9821 11.2416C17.9821 11.1208 17.8855 11 17.7405 11H16.2184C16.0977 11 16.001 11.0966 15.9769 11.1933L15.1313 14.4306H13.0052C12.8844 14.4306 12.812 14.5031 12.7636 14.5998L12.3771 16.0493C12.3771 16.0735 12.3771 16.0977 12.3771 16.0977C12.3771 16.2184 12.4737 16.3392 12.6187 16.3392H14.6239L13.6817 20.0115H11.6281C11.5073 20.0115 11.4349 20.084 11.3866 20.1806L11 21.6302C11 21.6543 11 21.6785 11 21.6785C11 21.7993 11.0966 21.9201 11.2416 21.9201H13.1744L12.3529 25.1091C12.3529 25.1333 12.3529 25.1575 12.3529 25.1575C12.3529 25.2783 12.4496 25.3991 12.5945 25.3991H14.1166C14.2374 25.3991 14.334 25.3266 14.3582 25.2058L15.2038 21.8959H18.9968L18.1754 25.085C18.1754 25.1091 18.1754 25.1333 18.1754 25.1333C18.1754 25.2541 18.272 25.3749 18.417 25.3749H19.939C20.0598 25.3749 20.1564 25.3024 20.1806 25.1816L21.0262 21.8718H23.1281C23.2489 21.8718 23.3455 21.7993 23.3697 21.6785L23.7562 20.2289C23.7562 20.2048 23.7562 20.1806 23.7562 20.1806C23.7562 20.0598 23.6596 19.939 23.5146 19.939H21.5335L22.4758 16.2668H24.5052C24.626 16.2668 24.7226 16.1943 24.7467 16.0735L25.1333 14.6239C25.1333 14.5998 25.1333 14.5756 25.1333 14.5756C25.1333 14.5514 25.0125 14.4548 24.8917 14.4548ZM19.5283 20.0598H15.7111L16.6533 16.3876H20.4464L19.5283 20.0598Z" fill="#4A4A48" stroke="#4A4A48" stroke-width="0.00266667"/>
</svg>
