<svg 
          width="16" 
          height="16" fill="none" 
          xmlns="http://www.w3.org/2000/svg">
          <path d="M 2.0000016689300537 16 C 1.4500016570091248 16 0.9790015518665314 15.80400064587593 0.5870015621185303 15.41200065612793 C 0.19500157237052917 15.020000666379929 -0.0006649688658626474 14.549333333969116 0.0000016977936638795654 14 L 0.0000016977936638795654 11 L 2.0000016689300537 11 L 2.0000016689300537 14 L 14.000001907348633 14 L 14.000001907348633 11 L 16.000001907348633 11 L 16.000001907348633 14 C 16.000001907348633 14.550000011920929 15.804002553224564 15.021000117063522 15.412002563476562 15.413000106811523 C 15.020002573728561 15.805000096559525 14.549335241317749 16.000666666659527 14.000001907348633 16 L 2.0000016689300537 16 Z M 7.000001907348633 12 L 7.000001907348633 3.8499999046325684 L 4.400001525878906 6.449999809265137 L 3.0000016689300537 5 L 8.000001907348633 0 L 13.000001907348633 5 L 11.60000228881836 6.449999809265137 L 9.000001907348633 3.8499999046325684 L 9.000001907348633 12 L 7.000001907348633 12 Z" fill="rgb(44,166,164)"/>
        </svg>